<svg width="768" height="2134" viewBox="0 0 768 2134" fill="none" xmlns="http://www.w3.org/2000/svg">
<path d="M427.038 1720.69C514.534 1729.31 893.215 1740.55 1038.54 1725.93V1349.63L899.815 1346.26C805.184 1326.02 745.852 1300.16 724.824 1289.29C612.168 1253.31 596.772 1255.18 499.138 1289.29C376.719 1344.38 209.989 1553.15 180.699 1594.38C114.984 1692.58 339.543 1712.07 427.038 1720.69Z" fill="white"/>
<path d="M-65.095 608.5C-135.472 580.5 -240.704 570.5 -284.523 569H-353V0H1162C931.576 51 876.594 142.5 767.13 228C526.21 446 378.758 608.5 267.795 655.5C156.832 702.5 22.8759 643.5 -65.095 608.5Z" fill="white"/>
</svg>
