<svg width="34" height="34" viewBox="0 0 34 34" fill="none" xmlns="http://www.w3.org/2000/svg">
<path d="M19.7447 14.2556C18.2886 12.8001 16.314 11.9824 14.2551 11.9824C12.1963 11.9824 10.2217 12.8001 8.76557 14.2556L3.27422 19.7452C1.81806 21.2013 1 23.1763 1 25.2356C1 27.295 1.81806 29.2699 3.27422 30.7261C4.73038 32.1823 6.70536 33.0003 8.76468 33.0003C10.824 33.0003 12.799 32.1823 14.2551 30.7261L16.9999 27.9813" stroke="#2C2C38" stroke-width="2" stroke-linecap="round" stroke-linejoin="round"/>
<path d="M14.2547 19.7447C15.7109 21.2002 17.6854 22.0179 19.7443 22.0179C21.8032 22.0179 23.7777 21.2002 25.2339 19.7447L30.7252 14.2551C32.1814 12.799 32.9994 10.824 32.9994 8.76468C32.9994 6.70536 32.1814 4.73038 30.7252 3.27422C29.2691 1.81806 27.2941 1 25.2348 1C23.1754 1 21.2005 1.81806 19.7443 3.27422L16.9995 6.01901" stroke="#2C2C38" stroke-width="2" stroke-linecap="round" stroke-linejoin="round"/>
</svg>
