<svg width="200" height="200" viewBox="0 0 200 200" fill="none" xmlns="http://www.w3.org/2000/svg">
<path d="M66.2657 33C80.3703 48.4419 98.1256 85.9011 66.2657 87.2959C34.9037 85.8015 52.327 48.4419 66.2657 33Z" stroke="#2C2C38" stroke-width="5"/>
<path d="M95.2913 79.3262C109.396 94.7681 127.151 132.227 95.2913 133.622C63.9293 132.128 81.3526 94.7681 95.2913 79.3262Z" stroke="#2C2C38" stroke-width="5"/>
<path d="M134.121 49.4375C148.225 64.8794 165.98 102.339 134.121 103.733C102.759 102.239 120.182 64.8794 134.121 49.4375Z" stroke="#2C2C38" stroke-width="5"/>
<line x1="15.5" y1="163.5" x2="183.738" y2="163.5" stroke="#2C2C38" stroke-width="5" stroke-linecap="round"/>
<line x1="2.5" y1="-2.5" x2="110.303" y2="-2.5" transform="matrix(0.818804 -0.574073 0.573584 0.819147 95.6366 166)" stroke="#2C2C38" stroke-width="5" stroke-linecap="round"/>
<path d="M96.3818 165.483C97.4808 166.319 99.0487 166.105 99.8838 165.006C100.719 163.906 100.505 162.337 99.406 161.501L96.3818 165.483ZM19.6315 101.754C18.2638 101.94 17.3064 103.201 17.493 104.569L20.5339 126.87C20.7206 128.238 21.9805 129.196 23.3481 129.01C24.7158 128.823 25.6732 127.563 25.4866 126.194L22.7836 106.372L42.5941 103.67C43.9617 103.484 44.9191 102.223 44.7325 100.855C44.5459 99.4864 43.286 98.5282 41.9183 98.7147L19.6315 101.754ZM99.406 161.501L21.4815 102.241L18.4573 106.222L96.3818 165.483L99.406 161.501Z" fill="#2C2C38"/>
</svg>
