<svg width="36" height="32" viewBox="0 0 36 32" fill="none" xmlns="http://www.w3.org/2000/svg">
<path d="M18 28.8571C16.3116 28.8571 14.6397 28.5246 13.0798 27.8784C11.5199 27.2323 10.1025 26.2853 8.90863 25.0914C7.71473 23.8975 6.76768 22.4801 6.12155 20.9202C5.47542 19.3603 5.14286 17.6884 5.14286 16C5.14286 14.3116 5.47542 12.6397 6.12155 11.0798C6.76768 9.51988 7.71473 8.10252 8.90863 6.90863C10.1025 5.71473 11.5199 4.76768 13.0798 4.12155C14.6397 3.47542 16.3116 3.14286 18 3.14286C21.4099 3.14286 24.6802 4.49744 27.0914 6.90863C29.5026 9.31981 30.8571 12.5901 30.8571 16C30.8571 19.4099 29.5026 22.6802 27.0914 25.0914C24.6802 27.5026 21.4099 28.8571 18 28.8571V28.8571ZM18 31C21.9782 31 25.7936 29.4196 28.6066 26.6066C31.4196 23.7936 33 19.9782 33 16C33 12.0218 31.4196 8.20644 28.6066 5.3934C25.7936 2.58035 21.9782 1 18 1C14.0218 1 10.2064 2.58035 7.3934 5.3934C4.58035 8.20644 3 12.0218 3 16C3 19.9782 4.58035 23.7936 7.3934 26.6066C10.2064 29.4196 14.0218 31 18 31Z" fill="#2C2C38"/>
<path d="M18.0003 2.07129C17.7161 2.07129 17.4436 2.18417 17.2426 2.3851C17.0417 2.58603 16.9288 2.85856 16.9288 3.14272V9.57129C16.9288 9.85545 17.0417 10.128 17.2426 10.3289C17.4436 10.5298 17.7161 10.6427 18.0003 10.6427C18.2844 10.6427 18.5569 10.5298 18.7579 10.3289C18.9588 10.128 19.0717 9.85545 19.0717 9.57129V3.14272C19.0717 2.85856 18.9588 2.58603 18.7579 2.3851C18.5569 2.18417 18.2844 2.07129 18.0003 2.07129V2.07129ZM18.0003 21.357C17.7161 21.357 17.4436 21.4699 17.2426 21.6708C17.0417 21.8717 16.9288 22.1443 16.9288 22.4284V28.857C16.9288 29.1412 17.0417 29.4137 17.2426 29.6146C17.4436 29.8155 17.7161 29.9284 18.0003 29.9284C18.2844 29.9284 18.5569 29.8155 18.7579 29.6146C18.9588 29.4137 19.0717 29.1412 19.0717 28.857V22.4284C19.0717 22.1443 18.9588 21.8717 18.7579 21.6708C18.5569 21.4699 18.2844 21.357 18.0003 21.357V21.357ZM31.9288 15.9999C31.9288 15.7157 31.816 15.4432 31.615 15.2422C31.4141 15.0413 31.1416 14.9284 30.8574 14.9284H24.4288C24.1447 14.9284 23.8722 15.0413 23.6712 15.2422C23.4703 15.4432 23.3574 15.7157 23.3574 15.9999C23.3574 16.284 23.4703 16.5565 23.6712 16.7575C23.8722 16.9584 24.1447 17.0713 24.4288 17.0713H30.8574C31.1416 17.0713 31.4141 16.9584 31.615 16.7575C31.816 16.5565 31.9288 16.284 31.9288 15.9999ZM12.6431 15.9999C12.6431 15.7157 12.5302 15.4432 12.3293 15.2422C12.1284 15.0413 11.8559 14.9284 11.5717 14.9284H5.14312C4.85896 14.9284 4.58644 15.0413 4.3855 15.2422C4.18457 15.4432 4.07169 15.7157 4.07169 15.9999C4.07169 16.284 4.18457 16.5565 4.3855 16.7575C4.58644 16.9584 4.85896 17.0713 5.14312 17.0713H11.5717C11.8559 17.0713 12.1284 16.9584 12.3293 16.7575C12.5302 16.5565 12.6431 16.284 12.6431 15.9999Z" fill="#2C2C38"/>
</svg>
