<svg width="1354" height="1985" viewBox="0 0 1354 1985" fill="none" xmlns="http://www.w3.org/2000/svg">
<path d="M74.4233 677.5C-5.57666 642.7 -118.243 639.667 -164.577 642.5H-241.577V0C256.257 14.5 1272.22 47.2 1353.42 62C1101.92 90 1003.92 161.5 927.923 303C774.923 619.5 622.923 724.5 384.923 740C196.423 744.5 165.423 715.5 74.4233 677.5Z" fill="white"/>
<path d="M343.924 1658C222.923 1914 -53.0765 1946.67 -213.577 1985L-282.577 1342C-244.91 1317.5 -349.677 1202.2 -252.077 1167C-130.077 1123 71.9234 1152 297.924 1291.5C352.161 1324.98 440.162 1454.39 343.924 1658Z" fill="white"/>
</svg>
