<svg width="320" height="1622" viewBox="0 0 320 1622" fill="none" xmlns="http://www.w3.org/2000/svg">
<path d="M150.724 1077.67C93.5827 1198.49 -36.7547 1213.91 -112.549 1232L-145.133 928.541C-127.346 916.979 -176.82 862.564 -130.73 845.952C-73.117 825.186 22.2749 838.872 129.001 904.708C154.614 920.508 196.171 981.582 150.724 1077.67Z" fill="white"/>
<path d="M46.0025 178.419C24.736 169.255 -5.21421 168.456 -17.531 169.202H-38V0C94.3394 3.81857 364.415 12.4301 386 16.3277C319.144 23.7015 293.092 42.5309 272.889 79.7949C232.217 163.145 191.811 190.797 128.543 194.879C78.4339 196.064 70.1931 188.427 46.0025 178.419Z" fill="white"/>
</svg>
