<svg width="768" height="1287" viewBox="0 0 768 1287" fill="none" xmlns="http://www.w3.org/2000/svg">
<path d="M11.0367 439.266C-38.7786 416.703 -108.935 414.736 -137.787 416.573H-185.734V0C124.263 9.40126 756.897 30.6027 807.46 40.1985C650.853 58.3526 589.829 104.711 542.504 196.454C447.232 401.661 352.583 469.739 204.383 479.788C87.0052 482.706 67.7017 463.904 11.0367 439.266Z" fill="white"/>
<path d="M178.853 1074.99C103.507 1240.97 -68.3562 1262.15 -168.298 1287L-211.264 870.103C-187.809 854.218 -253.047 779.462 -192.272 756.64C-116.303 728.112 9.48024 746.914 150.209 837.361C183.982 859.067 238.78 942.971 178.853 1074.99Z" fill="white"/>
</svg>
