<svg width="34" height="34" viewBox="0 0 34 34" fill="none" xmlns="http://www.w3.org/2000/svg">
<path d="M14.6867 7.7852L9.27393 1.53758C8.64993 0.817622 7.50594 0.820821 6.78114 1.54718L2.32996 6.00611C1.00517 7.33243 0.625974 9.30191 1.39237 10.881C5.97093 20.3604 13.6164 28.0161 23.0899 32.6077C24.6674 33.3741 26.6354 32.9949 27.9602 31.6686L32.453 27.168C33.181 26.4401 33.1826 25.2898 32.4562 24.6658L26.1842 19.2821C25.5282 18.7189 24.509 18.7925 23.8514 19.4517L21.6691 21.6372C21.5573 21.7543 21.4103 21.8314 21.2504 21.8569C21.0906 21.8823 20.9268 21.8546 20.7843 21.778C17.217 19.7238 14.2579 16.761 12.2083 13.1913C12.1316 13.0485 12.1038 12.8845 12.1292 12.7244C12.1546 12.5643 12.2319 12.4169 12.3491 12.3049L14.5251 10.1275C15.1843 9.4651 15.2563 8.44116 14.6867 7.7836V7.7852Z" stroke="#2C2C38" stroke-width="2" stroke-linecap="round" stroke-linejoin="round"/>
</svg>
