<svg width="320" height="807" viewBox="0 0 320 807" fill="none" xmlns="http://www.w3.org/2000/svg">
<path d="M58.1804 145.212C41.0337 137.753 16.8853 137.103 6.95445 137.71H-9.54932V0C97.1536 3.10785 314.91 10.1166 332.314 13.2887C278.409 19.2901 257.404 34.615 241.115 64.9434C208.322 132.78 175.743 155.285 124.731 158.608C84.3293 159.572 77.6849 153.356 58.1804 145.212Z" fill="white"/>
<path d="M115.943 736.304C90.0089 791.173 30.8526 798.175 -3.54813 806.391L-18.3372 668.574C-10.2639 663.323 -32.7191 638.61 -11.8 631.065C14.3488 621.635 57.6444 627.85 106.084 657.75C117.709 664.926 136.571 692.662 115.943 736.304Z" fill="white"/>
</svg>
