<svg width="15" height="15" viewBox="0 0 15 15" fill="none" xmlns="http://www.w3.org/2000/svg">
<path d="M10.6307 4.83818H9.8455C9.67474 4.83818 9.51235 4.92021 9.4119 5.06084L6.78021 8.71039L5.58824 7.05637C5.4878 6.91742 5.32708 6.83372 5.15465 6.83372H4.36949C4.26068 6.83372 4.19706 6.9576 4.26068 7.04633L6.34661 9.93919C6.39589 10.008 6.46085 10.064 6.53611 10.1027C6.61137 10.1413 6.69476 10.1615 6.77937 10.1615C6.86398 10.1615 6.94737 10.1413 7.02263 10.1027C7.09789 10.064 7.16285 10.008 7.21213 9.93919L10.7378 5.05079C10.8031 4.96206 10.7395 4.83818 10.6307 4.83818Z" fill="#4ECB71"/>
<path d="M7.5 0C3.35826 0 0 3.35826 0 7.5C0 11.6417 3.35826 15 7.5 15C11.6417 15 15 11.6417 15 7.5C15 3.35826 11.6417 0 7.5 0ZM7.5 13.7277C4.06138 13.7277 1.27232 10.9386 1.27232 7.5C1.27232 4.06138 4.06138 1.27232 7.5 1.27232C10.9386 1.27232 13.7277 4.06138 13.7277 7.5C13.7277 10.9386 10.9386 13.7277 7.5 13.7277Z" fill="#4ECB71"/>
</svg>
