<svg width="32" height="32" viewBox="0 0 32 32" fill="none" xmlns="http://www.w3.org/2000/svg">
<path d="M23.1961 19.1391C22.8068 18.9391 20.8675 17.9891 20.5068 17.8606C20.1461 17.7249 19.8818 17.6606 19.6211 18.0606C19.3568 18.457 18.6069 19.3391 18.3711 19.607C18.1426 19.8713 17.9104 19.9034 17.5212 19.707C15.2069 18.5499 13.6891 17.6427 12.1641 15.0249C11.7605 14.3284 12.5676 14.3784 13.3212 12.8749C13.4498 12.6106 13.3855 12.3856 13.2855 12.1856C13.1855 11.9856 12.3998 10.0499 12.0712 9.26057C11.7534 8.49272 11.4248 8.59986 11.1855 8.58557C10.957 8.57129 10.6962 8.57129 10.432 8.57129C10.1677 8.57129 9.74268 8.67129 9.38197 9.06058C9.02126 9.457 8.00342 10.4106 8.00342 12.3463C8.00342 14.282 9.41411 16.157 9.60697 16.4213C9.80697 16.6856 12.3819 20.657 16.3355 22.3677C18.8354 23.4463 19.814 23.5391 21.064 23.3534C21.8247 23.2391 23.3925 22.4034 23.7175 21.4784C24.0425 20.557 24.0425 19.7677 23.9461 19.6034C23.8496 19.4284 23.5854 19.3284 23.1961 19.1391Z" fill="white"/>
<path d="M30.757 9.8C29.9498 7.88214 28.7927 6.16071 27.3177 4.68214C25.8427 3.20714 24.1213 2.04643 22.1999 1.24286C20.2357 0.417857 18.15 0 16 0H15.9286C13.7643 0.0107143 11.6679 0.439286 9.69651 1.28214C7.79296 2.09643 6.08584 3.25357 4.62514 4.72857C3.16445 6.20357 2.01803 7.91786 1.22519 9.82857C0.403769 11.8071 -0.0105115 13.9107 0.000202614 16.075C0.0109168 18.5536 0.603766 21.0143 1.71447 23.2143V28.6429C1.71447 29.55 2.45017 30.2857 3.3573 30.2857H8.78938C10.9894 31.3964 13.45 31.9893 15.9286 32H16.0036C18.1428 32 20.2178 31.5857 22.1714 30.775C24.082 29.9786 25.7999 28.8357 27.2713 27.375C28.7463 25.9143 29.907 24.2071 30.7177 22.3036C31.5605 20.3321 31.9891 18.2357 31.9998 16.0714C32.0105 13.8964 31.5891 11.7857 30.757 9.8ZM25.3606 25.4429C22.8571 27.9214 19.5357 29.2857 16 29.2857H15.9393C13.7857 29.275 11.6465 28.7393 9.75722 27.7321L9.45723 27.5714H4.42872V22.5429L4.26801 22.2429C3.26088 20.3536 2.72517 18.2143 2.71445 16.0607C2.70017 12.5 4.06087 9.15714 6.55726 6.63929C9.05009 4.12143 12.3822 2.72857 15.9429 2.71429H16.0036C17.7893 2.71429 19.5214 3.06071 21.1535 3.74643C22.7463 4.41429 24.1749 5.375 25.4035 6.60357C26.6284 7.82857 27.5927 9.26071 28.2606 10.8536C28.9534 12.5036 29.2998 14.2536 29.2927 16.0607C29.2713 19.6179 27.8749 22.95 25.3606 25.4429Z" fill="white"/>
</svg>
