<svg width="200" height="200" viewBox="0 0 200 200" fill="none" xmlns="http://www.w3.org/2000/svg">
<path d="M44.0903 85.4883H16.6968C12.1312 85.4883 3 90.0492 3 100C3 101.244 3.83011 114.513 16.6968 114.927C22.3415 114.927 37.3111 114.927 44.0903 114.927" stroke="#2C2C38" stroke-width="5"/>
<path d="M159.06 85.4883H131.667C127.101 85.4883 117.97 90.0492 117.97 100C117.97 101.244 118.8 114.513 131.667 114.927C137.311 114.927 152.281 114.927 159.06 114.927" stroke="#2C2C38" stroke-width="5"/>
<path d="M112.989 75.1211H74.2509C67.7945 75.1211 54.8817 82.8298 54.8817 99.6487C54.8817 101.751 56.0556 124.176 74.2509 124.877C82.2333 124.877 103.402 124.877 112.989 124.877" stroke="#2C2C38" stroke-width="5"/>
<path d="M39.9398 85.4883H67.3333C71.8989 85.4883 81.0301 90.0492 81.0301 100C81.0301 101.244 80.2 114.513 67.3333 114.927C61.6886 114.927 46.719 114.927 39.9398 114.927" stroke="#2C2C38" stroke-width="5"/>
<path d="M154.91 85.4883H182.303C186.869 85.4883 196 90.0492 196 100C196 101.244 195.17 114.513 182.303 114.927C176.658 114.927 161.689 114.927 154.91 114.927" stroke="#2C2C38" stroke-width="5"/>
<path d="M88.086 75.1211H125.718C131.989 75.1211 144.533 82.8298 144.533 99.6487C144.533 101.751 143.393 124.176 125.718 124.877C117.963 124.877 97.3989 124.877 88.086 124.877" stroke="#2C2C38" stroke-width="5"/>
<line x1="99.7173" y1="34.5" x2="99.7173" y2="59.3536" stroke="#2C2C38" stroke-width="5" stroke-linecap="round"/>
<line x1="99.7171" y1="140.646" x2="99.7171" y2="165.5" stroke="#2C2C38" stroke-width="5" stroke-linecap="round"/>
<line x1="2.5" y1="-2.5" x2="27.3611" y2="-2.5" transform="matrix(0.500381 0.865806 -0.866245 0.49962 63.1829 41.1094)" stroke="#2C2C38" stroke-width="5" stroke-linecap="round"/>
<line x1="2.5" y1="-2.5" x2="27.3611" y2="-2.5" transform="matrix(0.500381 0.865806 -0.866245 0.49962 116.31 133.035)" stroke="#2C2C38" stroke-width="5" stroke-linecap="round"/>
<line x1="2.5" y1="-2.5" x2="27.3611" y2="-2.5" transform="matrix(-0.500381 0.865806 -0.866245 -0.49962 131.252 41.1094)" stroke="#2C2C38" stroke-width="5" stroke-linecap="round"/>
<line x1="2.5" y1="-2.5" x2="27.3611" y2="-2.5" transform="matrix(-0.500381 0.865806 -0.866245 -0.49962 78.1246 133.035)" stroke="#2C2C38" stroke-width="5" stroke-linecap="round"/>
<line x1="2.5" y1="-2.5" x2="27.3611" y2="-2.5" transform="matrix(-0.500381 0.865806 -0.866245 -0.49962 131.252 41.1094)" stroke="#2C2C38" stroke-width="5" stroke-linecap="round"/>
<line x1="2.5" y1="-2.5" x2="27.3611" y2="-2.5" transform="matrix(-0.500381 0.865806 -0.866245 -0.49962 78.1246 133.035)" stroke="#2C2C38" stroke-width="5" stroke-linecap="round"/>
</svg>
