<svg width="200" height="200" viewBox="0 0 200 200" fill="none" xmlns="http://www.w3.org/2000/svg">
<path d="M93 74L93 111L128 111" stroke="#2C2C38" stroke-width="5" stroke-linecap="round"/>
<path d="M99.1189 48.0295L99.0257 50.5278L99.0583 50.529L99.0909 50.5294L99.1189 48.0295ZM150.678 93.7931L148.189 94.0198L148.203 94.1796L148.238 94.3361L150.678 93.7931ZM99.5595 151V153.5H99.6045L99.6494 153.498L99.5595 151ZM58.6355 129.578C57.2552 129.546 56.1097 130.638 56.077 132.019L55.5444 154.512C55.5117 155.893 56.6042 157.038 57.9845 157.071C59.3648 157.103 60.5103 156.011 60.543 154.631L61.0164 134.636L81.0108 135.11C82.3912 135.142 83.5366 134.05 83.5693 132.67C83.602 131.289 82.5095 130.144 81.1292 130.111L58.6355 129.578ZM50.4794 93.2304C53.8372 67.2472 76.9457 49.7044 99.0257 50.5278L99.212 45.5313C74.58 44.6127 49.2137 64.0121 45.5206 92.5896L50.4794 93.2304ZM99.0909 50.5294C117.821 50.7386 129.814 59.3144 137.3 68.9891C144.87 78.7727 147.79 89.646 148.189 94.0198L153.168 93.5663C152.688 88.2965 149.439 76.5071 141.254 65.9293C132.985 55.2426 119.637 45.7585 99.1468 45.5297L99.0909 50.5294ZM148.238 94.3361C148.58 95.8706 148.712 99.967 147.844 105.434C146.99 110.819 145.202 117.285 141.911 123.543C135.391 135.939 122.927 147.658 99.4696 148.502L99.6494 153.498C125.107 152.582 139.084 139.658 146.336 125.871C149.93 119.037 151.861 112.027 152.783 106.218C153.691 100.491 153.659 95.676 153.119 93.25L148.238 94.3361ZM99.5595 148.5C81.1287 148.5 68.959 139.342 60.3854 130.352L56.7672 133.803C65.8208 143.296 79.2105 153.5 99.5595 153.5V148.5Z" fill="#2C2C38"/>
</svg>
