<svg width="7" height="4" viewBox="0 0 7 4" fill="none" xmlns="http://www.w3.org/2000/svg">
<path d="M6.86148 0.792626L3.75857 3.89861C3.72164 3.93548 3.68162 3.96165 3.63852 3.97714C3.59543 3.99262 3.54925 4.00024 3.5 3.99999C3.45075 3.99999 3.40457 3.99238 3.36148 3.97714C3.31838 3.9619 3.27836 3.93572 3.24142 3.89861L0.129288 0.792625C0.0430959 0.706604 4.05556e-08 0.599077 4.20943e-08 0.470045C4.3633e-08 0.341013 0.0461742 0.230415 0.138522 0.138249C0.230871 0.046083 0.33861 4.03789e-09 0.461741 5.50621e-09C0.584872 6.97453e-09 0.692612 0.046083 0.78496 0.138249L3.5 2.84792L6.21504 0.138249C6.30123 0.0522276 6.40749 0.00921639 6.53383 0.00921639C6.66016 0.00921639 6.76938 0.0552994 6.86148 0.147465C6.95383 0.239631 7 0.347158 7 0.470045C7 0.592933 6.95383 0.70046 6.86148 0.792626Z" fill="white"/>
</svg>
