<svg width="1920" height="1537" viewBox="0 0 1920 1537" fill="none" xmlns="http://www.w3.org/2000/svg">
<path d="M1294.5 1517.5C1411 1529 1875 1544 2068.5 1524.5V1022.5L1924 1018C1798 991 1719 956.5 1691 942C1541 894 1520.5 896.5 1390.5 942C1227.5 1015.5 1005.5 1294 966.5 1349C879 1480 1178 1506 1294.5 1517.5Z" fill="white"/>
<path d="M200 609C129.6 581 24.3333 571 -19.5 569.5H-265.5V0.5H1427.5C1197 51.5 1142 143 1032.5 228.5C791.5 446.5 644 609 533 656C422 703 288 644 200 609Z" fill="white"/>
</svg>
