<svg width="1143" height="1621" viewBox="0 0 1143 1621" fill="none" xmlns="http://www.w3.org/2000/svg">
<path d="M97.8203 553.263C32.4903 524.845 -59.5161 522.368 -97.3531 524.681H-160.233V0C246.31 11.8411 1075.97 38.5447 1142.28 50.6307C936.902 73.4962 856.873 131.885 794.809 247.437C669.866 505.899 545.739 591.645 351.382 604.302C197.448 607.977 172.133 584.295 97.8203 553.263Z" fill="white"/>
<path d="M317.901 1353.96C219.089 1563.02 -6.29919 1589.7 -137.367 1621L-193.715 1095.91C-162.955 1075.9 -248.51 981.746 -168.808 953.001C-69.1793 917.07 95.7788 940.751 280.336 1054.67C324.628 1082.01 396.492 1187.69 317.901 1353.96Z" fill="white"/>
</svg>
