<svg width="3075" height="2256" viewBox="0 0 3075 2256" fill="none" xmlns="http://www.w3.org/2000/svg">
<path d="M2055.27 2130.4C2208.76 2141.9 2820.07 2156.89 3075 2137.4V1635.54L2884.62 1631.04C2718.62 1604.05 2614.54 1569.56 2577.65 1555.06C2380.03 1507.07 2353.02 1509.57 2181.75 1555.06C1967 1628.54 1674.52 1906.96 1623.14 1961.95C1507.86 2092.91 1901.78 2118.9 2055.27 2130.4Z" fill="white"/>
<path d="M613.287 608.331C520.537 580.339 381.85 570.342 324.1 568.842H0V0H2230.49C1926.82 50.9858 1854.35 142.46 1710.09 227.937C1392.58 445.876 1198.25 608.331 1052.01 655.318C905.768 702.305 729.226 643.321 613.287 608.331Z" fill="white"/>
</svg>
