<svg width="567" height="1161" viewBox="0 0 567 1161" fill="none" xmlns="http://www.w3.org/2000/svg">
<path d="M268.724 1006.67C211.583 1127.49 81.2453 1142.91 5.45119 1161L-27.1332 857.541C-9.34557 845.979 -58.8203 791.564 -12.7299 774.952C44.883 754.186 140.275 767.872 247.001 833.708C272.614 849.508 314.171 910.582 268.724 1006.67Z" fill="white"/>
<path d="M112.334 219.723C83.8947 207.409 43.8433 206.336 27.3724 207.338H0V10.0003C176.5 4.5 538.135 -3.29881 567 1.93793C477.595 11.8453 442.758 37.1444 415.741 87.2118C361.351 199.2 307.318 236.353 222.712 241.837C155.703 243.429 144.683 233.168 112.334 219.723Z" fill="white"/>
</svg>
