<svg width="1280" height="1596" viewBox="0 0 1280 1596" fill="none" xmlns="http://www.w3.org/2000/svg">
<path d="M399.862 1328.37C300.842 1537.89 74.9778 1564.63 -56.3672 1596L-112.833 1069.75C-82.0088 1049.7 -167.744 955.332 -87.8736 926.524C11.965 890.513 177.271 914.247 362.218 1028.42C406.604 1055.82 478.62 1161.73 399.862 1328.37Z" fill="white"/>
<path d="M180.09 355.033C134.498 335.152 70.2884 333.42 43.8828 335.038H0V5.00007C284.5 8 862.724 -5.03618 909 3.41855C765.669 19.414 709.818 60.2595 666.505 141.094C579.309 321.899 492.684 381.882 357.046 390.737C249.619 393.307 231.952 376.741 180.09 355.033Z" fill="white"/>
</svg>
