<svg width="36" height="32" viewBox="0 0 36 32" fill="none" xmlns="http://www.w3.org/2000/svg">
<path d="M17.9971 2C16.053 2 14.4516 3.60136 14.4516 5.54545C14.4516 5.96145 14.5391 6.35382 14.6738 6.72727H8.76471L8.57916 7.68809L5.03371 25.4154L4.99707 25.5253V28H30.9971V25.5253L30.9604 25.4154L27.415 7.68809L27.2294 6.72727H21.3203C21.4623 6.34918 21.5375 5.94929 21.5425 5.54545C21.5425 3.60136 19.9412 2 17.9971 2ZM17.9971 4.36364C18.6624 4.36364 19.1789 4.88127 19.1789 5.54545C19.1789 6.21082 18.6613 6.72727 17.9971 6.72727C17.3317 6.72727 16.8153 6.20964 16.8153 5.54545C16.8153 4.88009 17.3329 4.36364 17.9971 4.36364ZM10.684 9.09091H25.3102L28.6334 25.6364H7.36071L10.684 9.09091Z" fill="#2C2C38"/>
</svg>
