<svg width="32" height="32" viewBox="0 0 32 32" fill="none" xmlns="http://www.w3.org/2000/svg">
<path d="M30 4H2C1.46957 4 0.960859 4.21071 0.585786 4.58579C0.210714 4.96086 0 5.46957 0 6V26C0 26.5304 0.210714 27.0391 0.585786 27.4142C0.960859 27.7893 1.46957 28 2 28H30C30.5304 28 31.0391 27.7893 31.4142 27.4142C31.7893 27.0391 32 26.5304 32 26V6C32 5.46957 31.7893 4.96086 31.4142 4.58579C31.0391 4.21071 30.5304 4 30 4V4ZM28.46 26H3.66L10.66 18.76L9.22 17.37L2 24.84V7.52L14.43 19.89C14.8047 20.2625 15.3116 20.4716 15.84 20.4716C16.3684 20.4716 16.8753 20.2625 17.25 19.89L30 7.21V24.71L22.64 17.35L21.23 18.76L28.46 26ZM3.31 6H28.38L15.84 18.47L3.31 6Z" fill="#2C2C38"/>
</svg>
