<svg width="32" height="34" viewBox="0 0 32 34" fill="none" xmlns="http://www.w3.org/2000/svg">
<path d="M28 14.0909C28 24.2727 16 33 16 33C16 33 4 24.2727 4 14.0909C4 10.619 5.26428 7.28926 7.51472 4.83424C9.76516 2.37922 12.8174 1 16 1C19.1826 1 22.2348 2.37922 24.4853 4.83424C26.7357 7.28926 28 10.619 28 14.0909Z" stroke="#2C2C38" stroke-width="2" stroke-linecap="round" stroke-linejoin="round"/>
<path d="M16.0014 18.4548C18.2105 18.4548 20.0014 16.5011 20.0014 14.0912C20.0014 11.6812 18.2105 9.72754 16.0014 9.72754C13.7922 9.72754 12.0014 11.6812 12.0014 14.0912C12.0014 16.5011 13.7922 18.4548 16.0014 18.4548Z" stroke="#2C2C38" stroke-width="2" stroke-linecap="round" stroke-linejoin="round"/>
</svg>
