<svg width="1917" height="1234" viewBox="0 0 1917 1234" fill="none" xmlns="http://www.w3.org/2000/svg">
<g clip-path="url(#clip0)">
<path d="M-415.16 425.246C-409.935 432.73 -403.608 440.522 -396.324 448.529C-356.352 473.169 -282.526 514.83 -253.642 561.066C-246.504 565.532 -239.274 569.938 -231.977 574.269C-215.064 456.814 -181.976 151.432 -173.66 -48.754C-16.3265 -59.9207 115.84 -111.754 167.84 43.746C197.593 132.717 70.7579 373.712 117.367 472.802C177.34 600.301 89.8403 655.746 55.3403 666.746C-2.74506 685.266 -124.624 637.973 -231.977 574.269C-239.128 623.933 -243.388 639.998 -241.66 600.301C-241.083 587.048 -245.636 573.881 -253.642 561.066C-311.667 524.761 -363.631 484.471 -396.324 448.529C-420.091 433.879 -431.89 425.246 -415.16 425.246Z" fill="white"/>
</g>
<defs>
<clipPath id="clip0">
<rect width="1917" height="1234" fill="white"/>
</clipPath>
</defs>
</svg>
